<?xml version="1.0" encoding="UTF-8" standalone="no"?>
<svg
   xmlns:dc="http://purl.org/dc/elements/1.1/"
   xmlns:cc="http://creativecommons.org/ns#"
   xmlns:rdf="http://www.w3.org/1999/02/22-rdf-syntax-ns#"
   xmlns:svg="http://www.w3.org/2000/svg"
   xmlns="http://www.w3.org/2000/svg"
   xmlns:sodipodi="http://sodipodi.sourceforge.net/DTD/sodipodi-0.dtd"
   xmlns:inkscape="http://www.inkscape.org/namespaces/inkscape"
   width="210mm"
   height="210mm"
   viewBox="0 0 210 210"
   version="1.1"
   id="svg8"
   inkscape:export-filename="/home/juferoga/GLud_Logo_letters.png"
   inkscape:export-xdpi="96"
   inkscape:export-ydpi="96"
   inkscape:version="0.92.5 (2060ec1f9f, 2020-04-08)"
   sodipodi:docname="GLUD_LOGO.svg">
  <defs
     id="defs2" />
  <sodipodi:namedview
     id="base"
     pagecolor="#ffffff"
     bordercolor="#666666"
     borderopacity="1.0"
     inkscape:pageopacity="0.0"
     inkscape:pageshadow="2"
     inkscape:zoom="0.43133514"
     inkscape:cx="243.67954"
     inkscape:cy="518.75784"
     inkscape:document-units="mm"
     inkscape:current-layer="g951"
     inkscape:document-rotation="0"
     showgrid="true"
     inkscape:window-width="1362"
     inkscape:window-height="729"
     inkscape:window-x="0"
     inkscape:window-y="18"
     inkscape:window-maximized="0">
    <inkscape:grid
       type="xygrid"
       id="grid4545" />
  </sodipodi:namedview>
  <metadata
     id="metadata5">
    <rdf:RDF>
      <cc:Work
         rdf:about="">
        <dc:format>image/svg+xml</dc:format>
        <dc:type
           rdf:resource="http://purl.org/dc/dcmitype/StillImage" />
        <dc:title></dc:title>
      </cc:Work>
    </rdf:RDF>
  </metadata>
  <g
     inkscape:label="Capa 1"
     inkscape:groupmode="layer"
     id="layer1">
    <g
       inkscape:label="Capa 1"
       id="layer1-6"
       transform="translate(-14.486196,-66.824194)">
      <g
         id="g951"
         transform="matrix(3.9900596,0,0,3.3996058,-914.86969,-277.94319)">
        <rect
           style="fill:none;fill-opacity:1;stroke:#ffffff;stroke-width:0.0766282;stroke-opacity:0;paint-order:stroke markers fill;stop-color:#000000"
           id="rect1241"
           width="53.27179"
           height="62.030125"
           x="232.70338"
           y="101.22144" />
        <path
           inkscape:export-ydpi="96"
           inkscape:export-xdpi="96"
           inkscape:export-filename="/home/juferoga/Imágenes/favicon.png"
           sodipodi:nodetypes="ccccscccccccccccccccccccsccccccccccccccscccccccsscccccccccccccccscccsccsccccscscccscccccscccscsscsccccccccccccccsccccccccccscsccc"
           style="fill:#000000;fill-opacity:1;stroke-width:0.07534057"
           d="m 258.46409,145.87146 c -0.84496,-0.17277 -1.11169,-0.32656 -1.33798,-0.77163 -0.27467,-0.5402 -0.20859,-0.76293 0.69626,-2.346 0.25902,-0.4532 0.58008,-1.11447 0.71345,-1.46951 0.21918,-0.58347 0.2425,-0.71255 0.2425,-1.3426 0,-0.61948 -0.0141,-0.70076 -0.12629,-0.72992 -0.0869,-0.0225 -0.21256,0.0987 -0.40243,0.38849 l -0.27611,0.42137 -0.48106,-0.009 c -0.38852,-0.006 -0.60695,-0.0729 -1.1355,-0.3402 -0.35993,-0.18202 -0.77222,-0.33396 -0.91621,-0.33769 l -0.26176,-0.006 -0.1865,0.78063 c -0.10256,0.42935 -0.2299,0.97575 -0.28298,1.21429 -0.18001,0.80886 -0.6091,1.40873 -0.86,1.2023 -0.20529,-0.16894 -0.28456,-0.53855 -0.28211,-1.31553 0.003,-1.16525 0.38712,-3.33251 0.68524,-3.87284 0.0834,-0.15124 0.1039,-0.15215 0.40153,-0.0176 0.17248,0.0778 0.69618,0.47839 1.16375,0.88996 0.46757,0.41158 1.00815,0.84417 1.20126,0.96137 0.61223,0.37149 0.75455,0.17359 0.94319,-1.31159 0.15587,-1.2272 0.16387,-2.10597 0.025,-2.74028 -0.0571,-0.26084 -0.10432,-0.5641 -0.10487,-0.67389 -0.002,-0.30556 0.39213,-1.2546 0.84683,-2.0415 1.65923,-2.87146 1.82332,-3.43137 1.76792,-6.03236 -0.0271,-1.27169 -0.0568,-1.62203 -0.17719,-2.09137 -0.4859,-1.89368 -1.93686,-4.3539 -3.47321,-5.88909 -0.95057,-0.94988 -1.54178,-1.21617 -2.85562,-1.28615 -1.0398,-0.0554 -1.88127,0.10587 -2.90237,0.55616 -0.95806,0.42248 -1.5315,0.8417 -1.99601,1.45915 -0.40361,0.53652 -0.55139,0.80881 -1.30068,2.39654 -0.23954,0.50756 -0.47887,0.97054 -0.53186,1.02884 -0.1493,0.1642 -0.41636,0.0336 -0.46587,-0.22787 -0.0697,-0.36784 0.1471,-1.58596 0.3998,-2.2469 0.64047,-1.67506 1.60658,-2.65614 3.30563,-3.35684 0.5803,-0.23933 0.69034,-0.31327 0.70776,-0.47549 0.0271,-0.2519 -0.17558,-0.31983 -0.79436,-0.26633 -0.31809,0.0275 -0.73368,0.16025 -1.2877,0.41127 -1.57701,0.71452 -1.94598,1.09423 -2.86315,2.94636 -0.69544,1.40443 -0.96203,1.82788 -1.15075,1.82788 -0.1172,0 -0.1237,-0.0437 -0.0836,-0.56182 0.11686,-1.51169 0.7705,-2.98913 1.88606,-4.263 0.48651,-0.55554 1.64064,-1.55675 2.14604,-1.86169 0.7064,-0.4262 0.879,-0.56773 0.98164,-0.80474 0.1255,-0.28982 0.0488,-0.47072 -0.299,-0.70525 -0.20711,-0.13965 -0.37373,-0.17102 -0.85472,-0.16096 -1.51751,0.0318 -2.52263,0.95106 -4.04026,3.69544 -0.38911,0.70365 -0.73432,1.27935 -0.76713,1.27935 -0.0864,0 -0.0748,-0.15364 0.0668,-0.88787 0.37855,-1.96168 1.28968,-3.70513 2.40602,-4.60391 0.52716,-0.42445 1.24252,-0.72119 2.01578,-0.83623 0.89588,-0.13327 1.13584,-0.22834 1.22409,-0.48504 0.0596,-0.17334 0.0512,-0.24346 -0.0461,-0.386 -0.19661,-0.28778 -0.56465,-0.36387 -1.46374,-0.30241 -1.35512,0.0926 -1.59055,0.2083 -4.0233,1.9777 -1.09707,0.79791 -1.48937,0.86053 -1.25285,0.19997 0.22765,-0.63585 1.65742,-2.14915 2.55844,-2.70792 1.29768,-0.80476 2.81215,-0.96275 4.9995,-0.5215 0.34194,0.0689 0.70269,0.15243 0.80167,0.1855 0.2867,0.0958 0.51946,-0.0172 0.49508,-0.23998 -0.042,-0.38396 -0.97023,-0.99542 -2.10884,-1.38914 -0.48791,-0.16871 -0.71189,-0.18377 -2.85271,-0.19169 -1.90921,-0.006 -2.35822,-0.0314 -2.51956,-0.13692 -0.29231,-0.1911 -0.24406,-0.36015 0.16415,-0.57481 0.99885,-0.52528 2.92724,-0.7599 4.55664,-0.55442 1.19558,0.15078 1.55841,0.27989 2.73971,0.97484 1.33758,0.78691 1.62999,0.91776 2.38866,1.06903 1.73142,0.34518 3.6628,1.30966 4.36309,2.17879 0.20367,0.25281 0.21791,0.30731 0.21791,0.83477 0,0.3104 -0.0443,0.7305 -0.0983,0.93362 -0.12656,0.47539 -0.53399,1.27058 -1.04408,2.03776 -0.54528,0.82003 -0.62457,0.98809 -0.62457,1.32375 0,0.63071 0.50428,1.42525 1.09403,1.72376 0.27221,0.13779 0.31825,0.13741 0.79183,-0.006 0.90866,-0.27585 1.13338,-0.30857 1.43253,-0.20875 0.35996,0.12012 0.8299,0.0615 1.1566,-0.14428 0.13965,-0.088 0.46724,-0.41655 0.72798,-0.73018 0.26074,-0.31363 0.6844,-0.81734 0.94148,-1.11936 0.68268,-0.80206 0.68906,-0.82679 0.63611,-2.46815 -0.0618,-1.9132 -0.25609,-3.3535 -0.47443,-3.51545 -0.16568,-0.12287 -0.84949,0.054 -1.64837,0.42654 -0.88081,0.41066 -1.9962,0.859 -2.02898,0.81553 -0.0653,-0.0866 0.41168,-0.35186 1.54076,-0.8572 1.42078,-0.63591 1.85242,-0.89309 1.95518,-1.16502 0.17399,-0.46037 0.3917,-0.61407 1.07258,-0.7572 0.16117,-0.0339 0.36054,-0.12021 0.44301,-0.19181 0.10891,-0.0946 0.2347,-0.11442 0.45953,-0.0724 0.81481,0.15205 0.90565,0.15059 1.37302,-0.0225 0.26096,-0.0966 0.47446,-0.15899 0.47446,-0.13865 0,0.0203 -0.18802,0.14996 -0.41782,0.28807 -0.34678,0.20838 -0.4303,0.30069 -0.4913,0.54295 -0.0405,0.16053 -0.17635,0.46322 -0.30205,0.67268 -0.38843,0.64719 -0.31123,1.16383 0.4969,3.32575 0.3628,0.97055 0.50835,1.44821 0.48003,1.57532 -0.12858,0.57734 -0.94398,1.54627 -2.40273,2.85512 -1.29637,1.16315 -1.68226,1.55807 -1.68226,1.72155 0,0.088 0.17785,0.56888 0.39523,1.06901 1.16289,2.67557 1.55182,4.41169 1.61336,7.20207 0.0591,2.67639 -0.17294,4.22708 -0.9766,6.52857 -0.53595,1.53475 -0.83612,2.19144 -1.24097,2.71487 -0.29395,0.38003 -0.96645,0.85908 -1.20618,0.85919 -0.21979,1.1e-4 -0.6827,0.24343 -0.92053,0.48383 -0.33155,0.33517 -0.48159,0.81106 -0.5477,1.73704 -0.0949,1.32889 -0.35591,2.51595 -0.93118,4.23436 -0.12654,0.378 -0.21576,0.73662 -0.19829,0.79701 0.0375,0.12959 0.10712,0.15043 1.27639,0.38268 1.32064,0.26233 1.86551,0.47606 2.07777,0.81502 0.12216,0.19511 0.0467,0.36501 -0.25225,0.56707 -0.67636,0.45731 -1.86869,0.55095 -3.29713,0.2589 z m 6.94593,-31.09447 c 0.48999,-0.3249 0.73084,-0.6347 0.73031,-0.9394 -8.3e-4,-0.65019 -1.39895,-3.86972 -1.68011,-3.86972 -0.0941,0 -0.10063,0.11992 -0.0597,1.09692 0.0513,1.22579 0.26849,3.79524 0.33223,3.93192 0.0672,0.14418 0.187,0.10532 0.67724,-0.21972 z m 2.1135,-7.79837 c 0.0167,-0.0223 0.41183,-0.23157 0.87802,-0.46538 1.56426,-0.78446 2.84204,-1.72937 3.97051,-2.93607 0.27785,-0.29714 0.51692,-0.51272 0.53127,-0.47912 0.0144,0.0336 0.063,0.27579 0.10804,0.53815 0.0862,0.50193 0.3367,1.24564 0.50104,1.48758 0.0535,0.0788 0.071,0.16469 0.0389,0.19098 -0.0321,0.0262 -0.48313,0.12977 -1.00227,0.2299 -1.13093,0.21815 -1.72826,0.37273 -2.51452,0.65072 -0.85712,0.30306 -3.40152,1.3337 -3.46089,1.3337 -0.0281,0 0.40104,-0.26604 0.41782,-0.28808 z"
           id="path231"
           inkscape:connector-curvature="0" />
        <text
           inkscape:export-ydpi="96"
           inkscape:export-xdpi="96"
           inkscape:export-filename="/home/juferoga/Imágenes/gludlogow.png"
           id="text47"
           y="142.98193"
           x="277.24771"
           style="font-style:normal;font-weight:normal;font-size:11.85363674px;line-height:1.25;font-family:sans-serif;letter-spacing:-0.66710323px;word-spacing:0px;fill:#070707;fill-opacity:1;stroke:none;stroke-width:0.29634002"
           xml:space="preserve"
           transform="scale(0.88622462,1.1283821)"><tspan
             style="font-style:normal;font-variant:normal;font-weight:normal;font-stretch:normal;font-family:'URW Gothic';-inkscape-font-specification:'URW Gothic';letter-spacing:-0.66710323px;fill:#070707;fill-opacity:1;stroke-width:0.29634002"
             y="142.98193"
             x="277.24771"
             id="tspan45"
             sodipodi:role="line">GLUD </tspan></text>
        <path
           style="fill:none;stroke:#000000;stroke-width:0.7660014;stroke-linecap:butt;stroke-linejoin:miter;stroke-miterlimit:4;stroke-dasharray:none;stroke-opacity:1"
           d="m 244.658,149.69167 c 28.58129,0 28.58129,0 28.58129,0"
           id="path3720"
           inkscape:connector-curvature="0" />
        <path
           inkscape:connector-curvature="0"
           id="path4527"
           d="m 244.658,149.69167 c 28.58129,0 28.58129,0 28.58129,0"
           style="fill:none;stroke:#000000;stroke-width:0.7660014;stroke-linecap:butt;stroke-linejoin:miter;stroke-miterlimit:4;stroke-dasharray:none;stroke-opacity:1" />
        <path
           style="fill:none;stroke:#000000;stroke-width:0.7660014;stroke-linecap:butt;stroke-linejoin:miter;stroke-miterlimit:4;stroke-dasharray:none;stroke-opacity:1"
           d="m 244.658,149.69167 c 28.58129,0 28.58129,0 28.58129,0"
           id="path4529"
           inkscape:connector-curvature="0" />
        <path
           inkscape:connector-curvature="0"
           id="path4531"
           d="m 244.658,149.69167 c 28.58129,0 28.58129,0 28.58129,0"
           style="fill:none;stroke:#000000;stroke-width:0.7660014;stroke-linecap:butt;stroke-linejoin:miter;stroke-miterlimit:4;stroke-dasharray:none;stroke-opacity:1" />
        <path
           style="fill:none;stroke:#000000;stroke-width:0.7660014;stroke-linecap:butt;stroke-linejoin:miter;stroke-miterlimit:4;stroke-dasharray:none;stroke-opacity:1"
           d="m 244.658,149.69167 c 28.58129,0 28.58129,0 28.58129,0"
           id="path4533"
           inkscape:connector-curvature="0" />
        <path
           inkscape:connector-curvature="0"
           id="path4535"
           d="m 244.658,149.69167 c 28.58129,0 28.58129,0 28.58129,0"
           style="fill:none;stroke:#000000;stroke-width:0.7660014;stroke-linecap:butt;stroke-linejoin:miter;stroke-miterlimit:4;stroke-dasharray:none;stroke-opacity:1" />
        <path
           style="fill:none;stroke:#000000;stroke-width:0.7660014;stroke-linecap:butt;stroke-linejoin:miter;stroke-miterlimit:4;stroke-dasharray:none;stroke-opacity:1"
           d="m 244.658,149.69167 c 28.58129,0 28.58129,0 28.58129,0"
           id="path4537"
           inkscape:connector-curvature="0" />
        <path
           inkscape:connector-curvature="0"
           id="path4539"
           d="m 244.658,149.69167 c 28.58129,0 28.58129,0 28.58129,0"
           style="fill:none;stroke:#000000;stroke-width:0.7660014;stroke-linecap:butt;stroke-linejoin:miter;stroke-miterlimit:4;stroke-dasharray:none;stroke-opacity:1" />
        <path
           style="fill:none;stroke:#000000;stroke-width:0.7660014;stroke-linecap:butt;stroke-linejoin:miter;stroke-miterlimit:4;stroke-dasharray:none;stroke-opacity:1"
           d="m 244.658,149.69167 c 28.58129,0 28.58129,0 28.58129,0"
           id="path4541"
           inkscape:connector-curvature="0" />
        <path
           inkscape:connector-curvature="0"
           id="path4543"
           d="m 242.82957,147.99918 c 32.23815,0 32.23815,0 32.23815,0"
           style="fill:none;stroke:#000000;stroke-width:0.86400831;stroke-linecap:butt;stroke-linejoin:miter;stroke-miterlimit:4;stroke-dasharray:none;stroke-opacity:1" />
      </g>
    </g>
  </g>
</svg>
